<?xml version="1.0"?>
<svg xmlns="http://www.w3.org/2000/svg" width="350" height="350" viewBox="0 0 512 512"><g><path d="M480,8H32A24.032,24.032,0,0,0,8,32V480a24.032,24.032,0,0,0,24,24H480a24.032,24.032,0,0,0,24-24V32A24.032,24.032,0,0,0,480,8Zm8,472a8.011,8.011,0,0,1-8,8H32a8.011,8.011,0,0,1-8-8V72H488Zm0-424H24V32a8.011,8.011,0,0,1,8-8H480a8.011,8.011,0,0,1,8,8Z"/><circle cx="48" cy="40" r="8"/><circle cx="72" cy="40" r="8"/><circle cx="96" cy="40" r="8"/><path d="M461.99,416.73l-84.85-84.85a8.015,8.015,0,0,0-11.32,0l-13.27-13.27a104.307,104.307,0,0,0,3.42-103.26L448,123.31V136a8,8,0,0,0,16,0V104a8,8,0,0,0-8-8H424a8,8,0,0,0,0,16h12.69l-89.53,89.53a104.632,104.632,0,0,0-9.62-11.07A104,104,0,0,0,189.39,336.44a8.059,8.059,0,0,0-3.05,1.9L168,356.69l-18.34-18.35a8.015,8.015,0,0,0-11.32,0l-68,68a8,8,0,0,0,11.32,11.32L144,355.31l18.34,18.35a8.015,8.015,0,0,0,11.32,0l24-24a7.981,7.981,0,0,0,2.12-3.84,104.141,104.141,0,0,0,118.83,6.73l13.27,13.27a8.015,8.015,0,0,0,0,11.32l84.86,84.85a24.021,24.021,0,0,0,33.94,0l11.31-11.31a24.034,24.034,0,0,0,0-33.95ZM326.22,326.22a87.983,87.983,0,1,1,9.48-113.23l-5.75,5.75A79.995,79.995,0,1,0,207.43,320.57a79.994,79.994,0,0,0,130.48-87.16l6.1-6.11a88.08,88.08,0,0,1-17.79,98.92Zm-95.56-9.56L288,259.31l6.34,6.35a8.015,8.015,0,0,0,11.32,0l19.72-19.73a63.989,63.989,0,0,1-96.1,71.83A8.434,8.434,0,0,0,230.66,316.66Zm-11.32-11.32a8.021,8.021,0,0,0-1.77,2.68,63.987,63.987,0,1,1,100.82-77.73L300,248.69l-6.34-6.35a8.015,8.015,0,0,0-11.32,0ZM331.88,343.2l11.32-11.32,11.31,11.32L343.2,354.51Zm118.8,96.16-11.32,11.32a8.012,8.012,0,0,1-11.31,0l-79.2-79.2,22.63-22.63,79.2,79.2A8.021,8.021,0,0,1,450.68,439.36Z"/><path d="M50.343,426.343l-8,8a8,8,0,0,0,11.314,11.314l8-8a8,8,0,0,0-11.314-11.314Z"/><path d="M91.056,240l13.789,27.578A8,8,0,0,0,112,272h32a8,8,0,0,0,0-16H116.944l-13.789-27.578A8,8,0,0,0,96,224H40a8,8,0,0,0,0,16Z"/><path d="M264,408a8,8,0,0,0-8,8v48a8,8,0,0,0,16,0V416A8,8,0,0,0,264,408Z"/><path d="M40,216H64a8,8,0,0,0,8-8V88a8,8,0,0,0-8-8H40a8,8,0,0,0-8,8V208A8,8,0,0,0,40,216ZM48,96h8V200H48Z"/><path d="M88,216h24a8,8,0,0,0,8-8V136a8,8,0,0,0-8-8H88a8,8,0,0,0-8,8v72A8,8,0,0,0,88,216Zm8-72h8v56H96Z"/><path d="M88,96h72a8,8,0,0,0,0-16H88a8,8,0,0,0,0,16Z"/><path d="M88,120h40a8,8,0,0,0,0-16H88a8,8,0,0,0,0,16Z"/><path d="M464,160H432a8,8,0,0,0-8,8V344a8,8,0,0,0,8,8h32a8,8,0,0,0,8-8V168A8,8,0,0,0,464,160Zm-8,24a8,8,0,0,0,0,16v16a8,8,0,0,0,0,16v16a8,8,0,0,0,0,16v16a8,8,0,0,0,0,16v16a8,8,0,0,0,0,16v8H440V176h16Z"/></g></svg>
