<?xml version="1.0"?>
<svg xmlns="http://www.w3.org/2000/svg" xmlns:xlink="http://www.w3.org/1999/xlink" width="26" height="26" viewBox="0 0 512 512"><defs><linearGradient id="a" data-name="New Gradient Swatch 1" x1="43" y1="517" x2="542.768" y2="17.232" gradientUnits="userSpaceOnUse"><stop offset="0" stop-color="#003f8a"/><stop offset="0.518" stop-color="#00d7df"/><stop offset="1" stop-color="#006df0"/></linearGradient><linearGradient id="b" x1="14.52" y1="488.52" x2="514.288" y2="-11.248" xlink:href="#a"/><linearGradient id="c" x1="-5" y1="469" x2="494.768" y2="-30.768" xlink:href="#a"/><linearGradient id="d" x1="21" y1="495" x2="520.768" y2="-4.768" xlink:href="#a"/><linearGradient id="e" x1="-95" y1="379" x2="404.768" y2="-120.768" xlink:href="#a"/><linearGradient id="f" x1="-139" y1="335" x2="360.768" y2="-164.768" xlink:href="#a"/><linearGradient id="g" x1="-51" y1="423" x2="448.768" y2="-76.768" xlink:href="#a"/></defs><g><path d="M351.6,208.4A56,56,0,1,0,368,248,55.637,55.637,0,0,0,351.6,208.4Zm-11.314,67.883A40,40,0,1,1,352,248,39.734,39.734,0,0,1,340.284,276.284Z" fill="url(#a)"/><path d="M472,120H360V48a32.036,32.036,0,0,0-32-32H72A32.036,32.036,0,0,0,40,48v72A32.036,32.036,0,0,0,8,152V392a32.036,32.036,0,0,0,32,32H204.9l-10.67,32H168a8,8,0,0,0-8,8v16H80a8,8,0,0,0,0,16H432a8,8,0,0,0,0-16H352V464a8,8,0,0,0-8-8H317.77L307.1,424H472a32.036,32.036,0,0,0,32-32V152A32.036,32.036,0,0,0,472,120ZM56,48A16.021,16.021,0,0,1,72,32H328a16.021,16.021,0,0,1,16,16v72a16.021,16.021,0,0,1-16,16H200a8,8,0,0,0-7.76,9.94l10.25,41.01L141,137.75a8.028,8.028,0,0,0-5-1.75H72a16.021,16.021,0,0,1-16-16ZM336,472v8H176v-8ZM211.1,456l10.67-32h68.46l10.67,32ZM488,392a16.021,16.021,0,0,1-16,16H40a16.021,16.021,0,0,1-16-16V376H406.06l28.79,28.79a7.991,7.991,0,0,0,11.32,0l22.62-22.62a8.018,8.018,0,0,0,2.35-5.66c0-.17-.02-.34-.03-.51H488ZM379.88,327.2l11.32-11.32,60.62,60.63-11.31,11.31ZM488,360H464a7.942,7.942,0,0,0-4.6,1.46l-62.55-62.55a8,8,0,0,0-11.31,0l-5.66,5.66-5.65-5.66-.3-.27a79.866,79.866,0,1,0-11.29,11.29l.27.3,5.66,5.65-5.66,5.66a8,8,0,0,0,0,11.31L390.06,360H24V152a16.021,16.021,0,0,1,16-16,7.87,7.87,0,0,0,3.77-.95A32.024,32.024,0,0,0,72,152h61.19L211,214.25a8,8,0,0,0,12.76-8.19L210.25,152H328a32.01,32.01,0,0,0,27.69-16H472a16.021,16.021,0,0,1,16,16ZM357.25,293.25a63.97,63.97,0,1,1,0-90.5A64.049,64.049,0,0,1,357.25,293.25Z" fill="url(#b)"/><path d="M96,384H48a8,8,0,0,0,0,16H96a8,8,0,0,0,0-16Z" fill="url(#c)"/><path d="M128,384h-8a8,8,0,0,0,0,16h8a8,8,0,0,0,0-16Z" fill="url(#d)"/><path d="M168,120h64a8,8,0,0,0,8-8V56a8,8,0,0,0-16,0v48H208V80a8,8,0,0,0-16,0v24H176V56a8,8,0,0,0-16,0v56A8,8,0,0,0,168,120Z" fill="url(#e)"/><path d="M80,120h64a8,8,0,0,0,8-8V56a8,8,0,0,0-16,0v48H120V80a8,8,0,0,0-16,0v24H88V56a8,8,0,0,0-16,0v56A8,8,0,0,0,80,120Z" fill="url(#f)"/><path d="M256,120h64a8,8,0,0,0,8-8V56a8,8,0,0,0-16,0v48H296V80a8,8,0,0,0-16,0v24H264V56a8,8,0,0,0-16,0v56A8,8,0,0,0,256,120Z" fill="url(#g)"/></g></svg>
